<svg width="335" height="335" xmlns="http://www.w3.org/2000/svg">

                                <g>
                                    <title>background</title>
                                    <rect fill="none" id="canvas_background" height="337" width="337" y="-1" x="-1" />
                                </g>
                                <g>
                                    <title>Layer 1</title>
                                    <g id="svg_1" style="stroke-width:1px">
                                        <path id="svg_4" style="stroke:#4B65FE" d="m143.756506,92.484492c35.167,-7.521 70.172,-15.683 105.57,-22.274c15.76,-2.936 22.635,6.281 21.928,25.979c-3.946,0.062 -7.886,0.127 -11.826,0.194c-0.983,-4.809 -1.962,-9.623 -3.267,-16.019c-38.264,7.129 -75.002,13.973 -111.726,20.82c-0.228,-2.902 -0.453,-5.799 -0.679,-8.7z" fill="#4B65FE" clip-rule="evenodd" fill-rule="evenodd" />
                                        <path id="svg_5" style="stroke:#756EFE" d="m259.428506,96.382492c3.94,-0.066 7.88,-0.132 11.826,-0.194c0.08,19.22 0.157,38.438 0.245,57.658c-4.089,0 -8.17,0 -12.259,0c-0.732,-5.977 -1.473,-11.954 -2.472,-20.082c-19.928,3.347 -38.974,6.543 -58.013,9.738c-2.355,-2.95 -4.716,-5.903 -7.066,-8.851c21.64,-4.549 43.277,-9.099 65.477,-13.768c0.756,-8.135 1.51,-16.318 2.262,-24.501z" fill="#756EFE" clip-rule="evenodd" fill-rule="evenodd" />
                                        <path id="svg_6" style="stroke:#6E55FE" d="m191.679506,134.648492c2.361,2.952 4.722,5.905 7.077,8.855c-22.961,4.72 -46.059,9.022 -68.803,14.426c-6.508,1.545 -12.002,6.287 -17.956,9.563c-3.59,0.004 -7.184,0.004 -10.775,0.004c-0.021,-13.535 -0.037,-27.07 -0.057,-40.604c3.613,-0.006 7.226,-0.017 10.838,-0.023c0.481,7.209 0.961,14.418 1.518,22.803c26.692,-5.132 52.423,-10.077 78.158,-15.024z" fill="#6E55FE" clip-rule="evenodd" fill-rule="evenodd" />
                                        <path id="svg_7" style="stroke:#C137FE" d="m38.360506,265.715492c3.022,13.813 8.456,25.84 27.611,27.578c18.665,1.697 27.946,-7.686 33.596,-21.324c3.947,0.123 7.891,0.246 11.839,0.366c-6.628,22.104 -24.602,34.956 -45.914,32.819c-23.092,-2.307 -37.295,-17.035 -38.118,-39.528c3.66,0.031 7.325,0.063 10.986,0.089z" fill="#C137FE" clip-rule="evenodd" fill-rule="evenodd" />
                                        <path id="svg_8" style="stroke:#B653FE" d="m271.095506,248.820492c-3.744,20.697 -16.175,32.258 -37.387,34.77c-19.527,2.317 -34.854,-5.793 -46.948,-26.934c6.034,0.599 11.54,-0.331 13.743,1.589c25.417,22.064 46.939,18.717 58.315,-9.487c4.093,0.021 8.185,0.045 12.277,0.062z" fill="#B653FE" clip-rule="evenodd" fill-rule="evenodd" />
                                        <path id="svg_9" style="stroke:#AA68FD" d="m271.095506,248.820492c-4.092,-0.018 -8.184,-0.041 -12.276,-0.063c0.077,-20.355 0.147,-40.712 0.214,-61.067c4.226,-1.11 8.449,-2.212 12.675,-3.321c-0.206,21.485 -0.408,42.968 -0.613,64.451z" fill="#AA68FD" clip-rule="evenodd" fill-rule="evenodd" />
                                        <path id="svg_10" style="stroke:#565FFE" d="m112.003506,126.869492c-3.612,0.006 -7.225,0.017 -10.838,0.023c-1.724,-28.543 1.916,-31.483 42.591,-34.408c0.227,2.901 0.451,5.798 0.68,8.7c-10.254,2.455 -20.504,4.913 -31.105,7.451c-0.456,6.226 -0.892,12.227 -1.328,18.234z" fill="#565FFE" clip-rule="evenodd" fill-rule="evenodd" />
                                        <path id="svg_11" style="stroke:#AB41FE" d="m38.360506,265.715492c-3.661,-0.026 -7.327,-0.058 -10.985,-0.089c4.171,-23.231 16.585,-33.229 42.053,-32.687c-10.697,11.282 -20.881,22.031 -31.068,32.776z" fill="#AB41FE" clip-rule="evenodd" fill-rule="evenodd" />
                                        
                                        
                                        <path id="svg_15" style="stroke:#896AFE" d="m271.707506,184.369492c-4.226,1.109 -8.449,2.211 -12.675,3.321c0.071,-11.283 0.137,-22.563 0.208,-33.844c4.089,0 8.17,0 12.259,0c0.065,10.176 0.137,20.349 0.208,30.523z" fill="#896AFE" clip-rule="evenodd" fill-rule="evenodd" />
                                        <path id="svg_16" style="stroke:#7F44FE" d="m101.222506,167.496492c3.592,0 7.186,0 10.775,-0.004c-0.022,12.398 -0.045,24.795 -0.068,37.193c-3.55,0.005 -7.102,0.01 -10.65,0.013c-0.017,-12.401 -0.041,-24.798 -0.057,-37.202z" fill="#7F44FE" clip-rule="evenodd" fill-rule="evenodd" />
                                        <path id="svg_18" style="stroke:#943CFE" d="m101.278506,204.698492c3.549,-0.003 7.101,-0.008 10.65,-0.013c0.003,11.279 0.012,22.555 0.015,33.829c-3.562,0.004 -7.125,0.009 -10.69,0.013c0.009,-11.275 0.017,-22.552 0.025,-33.829z" fill="#943CFE" clip-rule="evenodd" fill-rule="evenodd" />
                                       
                                       
                                        <path id="svg_20" style="stroke:#AA36FE" d="m101.253506,238.527492c3.565,-0.004 7.129,-0.009 10.69,-0.013c-0.18,11.273 -0.358,22.546 -0.537,33.82c-3.948,-0.12 -7.892,-0.243 -11.839,-0.366c0.562,-11.146 1.123,-22.292 1.686,-33.441z" fill="#AA36FE" clip-rule="evenodd" fill-rule="evenodd" />
                                        
                                    
                                    </g>
                                </g>
                            </svg>