<svg width="335" height="335" xmlns="http://www.w3.org/2000/svg">

                                <g>
                                    <title>background</title>
                                    <rect fill="none" id="canvas_background" height="337" width="337" y="-1" x="-1" />
                                </g>
                                <g>
                                    <title>Layer 1</title>
                                    <g id="svg_1" style="stroke-width:1px">
                                        <path id="svg_3" style="stroke: #346CFE" d="m296.972506,66.009492c-0.555,-6.703 -1.031,-13.413 -1.749,-20.103c-0.107,-0.958 -1.401,-1.824 -3.966,-4.947c-25.86,4.211 -53.075,8.578 -80.256,13.081c-28.552,4.73 -57.037,9.777 -85.655,14.159c-3.874,0.596 -8.376,-1.887 -12.587,-2.943c3.414,-2.378 6.479,-6.236 10.296,-6.915c53.947,-9.571 107.955,-18.876 162.045,-27.813c10.765,-1.781 19.364,0.993 20.042,12.602c0.453,7.642 1.681,15.248 2.563,22.872c-3.577,0 -7.156,0.004 -10.733,0.007z" fill="#346CFE" clip-rule="evenodd" fill-rule="evenodd"/>
                                        <path id="svg_17" style="stroke:#5258FE" d="m307.658506,96.432492c-1.044,12.307 -2.089,24.611 -3.129,36.915c-2.509,-0.115 -5.009,-0.229 -7.519,-0.343c0,-12.186 0,-24.376 0,-36.562c3.549,-0.002 7.101,-0.007 10.648,-0.01z" fill="#5258FE" clip-rule="evenodd" fill-rule="evenodd" />
                                        <path id="svg_21" style="stroke:#3E61FE" d="m307.658506,96.432492c-3.547,0.003 -7.099,0.008 -10.647,0.009c-0.014,-10.145 -0.031,-20.288 -0.039,-30.433c3.577,-0.003 7.156,-0.007 10.732,-0.007c-0.014,10.143 -0.031,20.289 -0.046,30.431z" fill="#3E61FE" clip-rule="evenodd" fill-rule="evenodd" />
                                        
                                    
                                    </g>
                                </g>
                            </svg>